<svg width="447" height="56" viewBox="0 0 447 56" fill="none" xmlns="http://www.w3.org/2000/svg">
<g clip-path="url(#clip0_0_189)">
<rect x="56" y="1" width="54" height="54" fill="#B53B1B"/>
<rect x="56" y="1" width="54" height="54" stroke="white" stroke-width="2"/>
<path d="M84.9574 21.9091V35H83.3722V23.571H83.2955L80.0994 25.6932V24.0824L83.3722 21.9091H84.9574Z" fill="white"/>
<rect x="112" y="1" width="54" height="54" stroke="white" stroke-width="2"/>
<path d="M135.355 35V33.8494L139.676 29.1193C140.183 28.5653 140.601 28.0838 140.929 27.6747C141.257 27.2614 141.5 26.8736 141.658 26.5114C141.82 26.1449 141.901 25.7614 141.901 25.3608C141.901 24.9006 141.79 24.5021 141.568 24.1655C141.351 23.8288 141.053 23.5689 140.673 23.3857C140.294 23.2024 139.868 23.1108 139.395 23.1108C138.892 23.1108 138.453 23.2152 138.078 23.424C137.707 23.6286 137.42 23.9162 137.215 24.2869C137.015 24.6577 136.915 25.0923 136.915 25.5909H135.406C135.406 24.8239 135.583 24.1506 135.937 23.571C136.29 22.9915 136.772 22.5398 137.381 22.2159C137.995 21.892 138.683 21.7301 139.446 21.7301C140.213 21.7301 140.893 21.892 141.485 22.2159C142.077 22.5398 142.542 22.9766 142.879 23.5263C143.215 24.076 143.384 24.6875 143.384 25.3608C143.384 25.8423 143.296 26.3132 143.121 26.7734C142.951 27.2294 142.653 27.7386 142.227 28.3011C141.805 28.8594 141.219 29.5412 140.469 30.3466L137.528 33.4915V33.5938H143.614V35H135.355Z" fill="white"/>
<rect x="168" y="1" width="54" height="54" stroke="white" stroke-width="2"/>
<path d="M194.778 35.179C193.935 35.179 193.183 35.0341 192.522 34.7443C191.866 34.4545 191.344 34.0518 190.956 33.5362C190.572 33.0163 190.364 32.4134 190.33 31.7273H191.94C191.974 32.1491 192.119 32.5135 192.375 32.8203C192.631 33.1229 192.965 33.3572 193.379 33.5234C193.792 33.6896 194.25 33.7727 194.753 33.7727C195.315 33.7727 195.814 33.6747 196.249 33.4787C196.683 33.2827 197.024 33.0099 197.271 32.6605C197.518 32.3111 197.642 31.9062 197.642 31.446C197.642 30.9645 197.523 30.5405 197.284 30.174C197.045 29.8033 196.696 29.5135 196.236 29.3047C195.776 29.0959 195.213 28.9915 194.548 28.9915H193.5V27.5852H194.548C195.068 27.5852 195.524 27.4915 195.916 27.304C196.313 27.1165 196.621 26.8523 196.843 26.5114C197.069 26.1705 197.182 25.7699 197.182 25.3097C197.182 24.8665 197.084 24.4808 196.888 24.1527C196.692 23.8246 196.415 23.5689 196.057 23.3857C195.703 23.2024 195.286 23.1108 194.804 23.1108C194.352 23.1108 193.926 23.1939 193.526 23.3601C193.129 23.522 192.805 23.7585 192.554 24.0696C192.303 24.3764 192.166 24.7472 192.145 25.1818H190.611C190.636 24.4957 190.843 23.8949 191.231 23.3793C191.619 22.8594 192.126 22.4545 192.752 22.1648C193.383 21.875 194.075 21.7301 194.83 21.7301C195.639 21.7301 196.334 21.8942 196.913 22.2223C197.493 22.5462 197.938 22.9744 198.249 23.5071C198.56 24.0398 198.716 24.6151 198.716 25.233C198.716 25.9702 198.522 26.5987 198.134 27.1186C197.751 27.6385 197.229 27.9986 196.568 28.1989V28.3011C197.395 28.4375 198.04 28.7891 198.505 29.3558C198.969 29.9183 199.202 30.6151 199.202 31.446C199.202 32.1577 199.008 32.7969 198.62 33.3636C198.237 33.9261 197.712 34.3693 197.048 34.6932C196.383 35.017 195.626 35.179 194.778 35.179Z" fill="white"/>
<rect x="224" y="1" width="54" height="54" stroke="white" stroke-width="2"/>
<path d="M246.048 32.3153V31.0114L251.801 21.9091H252.747V23.929H252.108L247.761 30.8068V30.9091H255.509V32.3153H246.048ZM252.21 35V31.919V31.3118V21.9091H253.719V35H252.21Z" fill="white"/>
<rect x="336" y="1" width="54" height="54" stroke="white" stroke-width="2"/>
<path d="M359.957 21.9091V35H358.372V23.571H358.295L355.099 25.6932V24.0824L358.372 21.9091H359.957ZM364.131 35L369.987 23.4176V23.3153H363.237V21.9091H371.623V23.392L365.793 35H364.131Z" fill="white"/>
<rect x="392" y="1" width="54" height="54" stroke="white" stroke-width="2"/>
<path d="M410 34.584L412.707 36L428 28L412.707 20L410 21.416L422.586 28L410 34.584Z" fill="white"/>
<rect x="1" y="1" width="54" height="54" stroke="white" stroke-width="2"/>
<path d="M34.2866 36L19 28L34.2866 20L37 21.42L24.4268 28L37 34.58L34.2866 36Z" fill="white"/>
<rect x="280" y="1" width="54" height="54" stroke="white" stroke-width="2"/>
<path d="M302.48 32.1023C302.165 32.1023 301.894 31.9893 301.668 31.7635C301.442 31.5376 301.33 31.267 301.33 30.9517C301.33 30.6364 301.442 30.3658 301.668 30.1399C301.894 29.9141 302.165 29.8011 302.48 29.8011C302.795 29.8011 303.066 29.9141 303.292 30.1399C303.518 30.3658 303.631 30.6364 303.631 30.9517C303.631 31.1605 303.577 31.3523 303.471 31.527C303.369 31.7017 303.23 31.8423 303.055 31.9489C302.885 32.0511 302.693 32.1023 302.48 32.1023ZM307.437 32.1023C307.122 32.1023 306.851 31.9893 306.625 31.7635C306.4 31.5376 306.287 31.267 306.287 30.9517C306.287 30.6364 306.4 30.3658 306.625 30.1399C306.851 29.9141 307.122 29.8011 307.437 29.8011C307.752 29.8011 308.023 29.9141 308.249 30.1399C308.475 30.3658 308.588 30.6364 308.588 30.9517C308.588 31.1605 308.534 31.3523 308.428 31.527C308.326 31.7017 308.187 31.8423 308.012 31.9489C307.842 32.0511 307.65 32.1023 307.437 32.1023ZM312.394 32.1023C312.079 32.1023 311.808 31.9893 311.582 31.7635C311.357 31.5376 311.244 31.267 311.244 30.9517C311.244 30.6364 311.357 30.3658 311.582 30.1399C311.808 29.9141 312.079 29.8011 312.394 29.8011C312.71 29.8011 312.98 29.9141 313.206 30.1399C313.432 30.3658 313.545 30.6364 313.545 30.9517C313.545 31.1605 313.491 31.3523 313.385 31.527C313.283 31.7017 313.144 31.8423 312.969 31.9489C312.799 32.0511 312.607 32.1023 312.394 32.1023Z" fill="white"/>
</g>
<defs>
<clipPath id="clip0_0_189">
<rect width="447" height="56" fill="white"/>
</clipPath>
</defs>
</svg>
