<svg width="40" height="40" viewBox="0 0 40 40" fill="none" xmlns="http://www.w3.org/2000/svg">
<rect width="40" height="40" rx="5" fill="#B53B1B"/>
<path d="M19.8843 16.8254V13.0159H15.919V10.4762H19.8843V6.66669H22.5278V10.4762H26.4931V13.0159H22.5278V16.8254H19.8843ZM14.5972 33.3334C13.8703 33.3334 13.2481 33.0849 12.7309 32.588C12.2128 32.0902 11.9537 31.4921 11.9537 30.7937C11.9537 30.0953 12.2128 29.4972 12.7309 28.9994C13.2481 28.5025 13.8703 28.254 14.5972 28.254C15.3242 28.254 15.9463 28.5025 16.4636 28.9994C16.9817 29.4972 17.2408 30.0953 17.2408 30.7937C17.2408 31.4921 16.9817 32.0902 16.4636 32.588C15.9463 33.0849 15.3242 33.3334 14.5972 33.3334ZM27.8149 33.3334C27.0879 33.3334 26.4658 33.0849 25.9486 32.588C25.4304 32.0902 25.1714 31.4921 25.1714 30.7937C25.1714 30.0953 25.4304 29.4972 25.9486 28.9994C26.4658 28.5025 27.0879 28.254 27.8149 28.254C28.5419 28.254 29.1644 28.5025 29.6826 28.9994C30.1998 29.4972 30.4584 30.0953 30.4584 30.7937C30.4584 31.4921 30.1998 32.0902 29.6826 32.588C29.1644 33.0849 28.5419 33.3334 27.8149 33.3334ZM14.5972 26.9841C13.6059 26.9841 12.8459 26.5659 12.3172 25.7295C11.7885 24.894 11.7775 24.0635 12.2841 23.2381L14.0685 20.127L9.31016 10.4762H6.66663V7.93653H10.9954L16.6129 19.3651H25.8983L31.0202 10.4762L33.3333 11.6826L28.2114 20.5714C27.9691 20.9947 27.6497 21.3228 27.2532 21.5556C26.8566 21.7884 26.405 21.9048 25.8983 21.9048H16.0512L14.5972 24.4445H30.4584V26.9841H14.5972Z" fill="white"/>
</svg>
